<?xml version="1.0" encoding="UTF-8" standalone="no"?>
<!DOCTYPE svg PUBLIC "-//W3C//DTD SVG 1.1//EN" "http://www.w3.org/Graphics/SVG/1.1/DTD/svg11.dtd">
<svg width="100%" height="100%" viewBox="0 0 800 600" version="1.1" xmlns="http://www.w3.org/2000/svg" xmlns:xlink="http://www.w3.org/1999/xlink" xml:space="preserve" xmlns:serif="http://www.serif.com/" style="fill-rule:evenodd;clip-rule:evenodd;stroke-linejoin:round;stroke-miterlimit:2;">
    <g transform="matrix(1.29877,0,0,1.2634,-132.943,-93.3786)">
        <path d="M659.564,268.408C659.564,184.403 593.318,116.303 511.601,116.303L151.99,116.303L151.99,500.642L511.601,500.642C593.318,500.642 659.564,432.542 659.564,348.537L659.564,268.408Z" style="fill:white;"/>
        <g transform="matrix(1,0,0,1,6.82035,-1.70509)">
            <g>
                <g transform="matrix(0.740516,0,0,0.462926,74.869,105.596)">
                    <path d="M659.564,308.472C659.564,202.34 607.243,116.303 542.703,116.303L151.99,116.303L151.99,500.642L542.703,500.642C607.243,500.642 659.564,414.605 659.564,308.473L659.564,308.472Z" style="fill:rgb(5,0,255);"/>
                </g>
                <g transform="matrix(0.740516,0,0,0.462926,74.869,235.762)">
                    <path d="M659.564,308.472C659.564,257.505 647.251,208.627 625.336,172.588C603.42,136.549 573.696,116.303 542.703,116.303L151.99,116.303L151.99,500.642L542.703,500.642C607.243,500.642 659.564,414.605 659.564,308.473L659.564,308.472Z" style="fill:rgb(5,0,255);"/>
                </g>
            </g>
            <g transform="matrix(0.55929,0,0,0.232012,148.186,171.96)">
                <path d="M659.564,308.467C659.564,202.338 624.845,116.303 582.018,116.303C439.865,116.303 151.99,116.303 151.99,116.303L151.99,500.642L582.018,500.642C624.845,500.642 659.564,414.607 659.564,308.477C659.564,308.474 659.564,308.471 659.564,308.467Z" style="fill:white;"/>
            </g>
            <g transform="matrix(0.55929,0,0,0.232012,148.186,311.777)">
                <path d="M659.564,308.467C659.564,202.338 624.845,116.303 582.018,116.303C439.865,116.303 151.99,116.303 151.99,116.303L151.99,500.642L582.018,500.642C624.845,500.642 659.564,414.607 659.564,308.477C659.564,308.474 659.564,308.471 659.564,308.467Z" style="fill:white;"/>
            </g>
        </g>
    </g>
</svg>
