<?xml version="1.0" encoding="UTF-8" standalone="no"?>
<!DOCTYPE svg PUBLIC "-//W3C//DTD SVG 1.1//EN" "http://www.w3.org/Graphics/SVG/1.1/DTD/svg11.dtd">
<svg width="100%" height="100%" viewBox="0 0 800 200" version="1.1" xmlns="http://www.w3.org/2000/svg" xmlns:xlink="http://www.w3.org/1999/xlink" xml:space="preserve" xmlns:serif="http://www.serif.com/" style="fill-rule:evenodd;clip-rule:evenodd;stroke-linejoin:round;stroke-miterlimit:2;">
    <g transform="matrix(1.12957,0,0,1,-48.9069,-204.355)">
        <path d="M423.404,314.405C399.191,337.682 361.954,342.852 326.911,324.25C321.246,321.243 315.571,317.506 310.299,313.156C316.447,307.626 322.023,301.162 326.886,293.725C332.588,285.003 340.393,268.184 341.264,253.501C341.977,241.475 338.487,230.781 328.097,224.703C298.89,207.619 270.033,238.722 270.255,266.568C270.384,282.824 277.181,298.083 287.333,310.896C267.765,322.104 244.019,325.179 220.264,321.809C197.122,318.527 176,306.368 168.14,283.814C175.185,282.911 182.066,281.395 188.693,279.051C199.032,275.393 210.715,268.276 215.215,257.597C218.148,250.634 217.158,243.327 213.518,237.113C208.917,229.26 199.763,223.467 191.201,223.561C175.932,223.727 164.6,233.8 158.174,247.097C154.866,253.942 152.921,261.621 152.392,269.107C129.507,269.63 105.566,264.945 83.963,263.139C80.065,262.813 76.666,266.123 76.377,270.526C76.089,274.93 79.019,278.769 82.918,279.095C105.213,280.959 129.875,285.422 153.532,284.874C153.771,285.903 154.049,286.908 154.361,287.887C163.585,316.787 189.375,333.553 218.499,337.685C246.954,341.721 275.249,337.183 298.087,322.483C305.121,329.003 312.944,334.515 320.886,338.731C362.989,361.08 407.54,353.334 435.58,323.707C474.863,350.201 530.843,357.542 572.419,335.464C575.707,333.719 578.869,331.737 581.882,329.548C582.193,329.725 582.502,329.896 582.812,330.063C598.976,338.793 618.165,341.729 638.209,341.521C666.863,341.224 697.305,334.529 722.404,330.782C726.28,330.203 729.01,326.18 728.498,321.803C727.986,317.425 724.424,314.341 720.549,314.92C695.962,318.59 666.148,325.231 638.079,325.522C622.554,325.682 607.576,323.919 594.481,318.309C607.357,304.306 615.694,285.99 616.851,266.967C617.91,249.547 612.58,233.033 601.652,226.093C594.236,221.382 583.87,220.446 570.355,227.596C532.333,247.713 543.047,294.757 568.781,319.65C567.997,320.112 567.199,320.557 566.393,320.984C529.68,340.479 480.523,334.379 445.259,311.622C452.486,300.933 457.945,288.293 461.094,273.938C467.234,245.957 451.401,205.113 415.599,215.772C405.908,218.658 399.596,223.772 395.676,229.91C389.79,239.124 389.122,251.114 392.121,263.505C396.474,281.484 408.566,300.311 418.505,309.926C420.092,311.461 421.727,312.957 423.404,314.405ZM581.162,310.369C593.467,298.796 601.692,282.762 602.719,265.871C603.373,255.116 601.456,244.324 594.71,240.039C590.345,237.267 584.317,237.877 576.363,242.086C568.991,245.986 564.228,251.187 561.762,257.245C558.011,266.461 559.557,277.267 563.85,287.182C567.717,296.114 573.873,304.373 581.162,310.369ZM433.308,302.814C439.738,293.633 444.587,282.66 447.346,270.089C451.316,251.995 442.361,224.351 419.209,231.244C413.448,232.959 409.493,235.623 407.162,239.272C403.67,244.739 404.005,251.933 405.784,259.284C409.396,274.203 419.472,289.796 427.718,297.774C429.513,299.51 431.377,301.19 433.308,302.814ZM299.373,302.492C305.4,297.421 310.827,291.353 315.492,284.219C320.014,277.303 326.44,264.075 327.131,252.431C327.459,246.903 326.36,241.706 321.584,238.911C310.363,232.348 299.3,237.188 292.242,245.773C287.452,251.6 284.361,259.164 284.419,266.424C284.526,279.892 290.57,292.219 299.373,302.492ZM166.682,268.007C172.766,267.169 178.713,265.815 184.46,263.782C191.231,261.387 199.478,257.715 202.425,250.721C203.395,248.419 202.101,246.156 200.54,244.306C198.198,241.532 194.696,239.523 191.338,239.56C181.673,239.665 174.674,246.347 170.607,254.764C168.608,258.9 167.268,263.475 166.682,268.007Z" style="fill:rgb(255,227,0);"/>
    </g>
    <g transform="matrix(1.12957,0,0,1,-48.9069,-204.355)">
        <path d="M713.578,322.927C710.472,326.197 706.792,330.094 705.216,331.84C691.284,347.274 678.6,363.912 670.205,383.057C668.47,387.014 669.905,391.817 673.408,393.777C676.91,395.737 681.163,394.116 682.898,390.159C690.601,372.592 702.35,357.425 715.134,343.263C718.44,339.6 728.154,329.92 729.924,327.269C732.042,324.097 731.665,321.255 731.439,320.121C731.185,318.844 730.127,316.181 727.338,313.763C723.82,310.713 715.244,305.402 712.215,302.939C696.885,290.471 681.544,277.817 667.197,264.218C664.203,261.38 659.732,261.822 657.219,265.204C654.707,268.587 655.098,273.637 658.092,276.475C672.705,290.326 688.324,303.224 703.939,315.924C705.66,317.324 709.996,320.413 713.578,322.927Z" style="fill:rgb(255,227,0);"/>
    </g>
</svg>
