<?xml version="1.0" encoding="UTF-8" standalone="no"?>
<!DOCTYPE svg PUBLIC "-//W3C//DTD SVG 1.1//EN" "http://www.w3.org/Graphics/SVG/1.1/DTD/svg11.dtd">
<svg width="100%" height="100%" viewBox="0 0 800 400" version="1.1" xmlns="http://www.w3.org/2000/svg" xmlns:xlink="http://www.w3.org/1999/xlink" xml:space="preserve" xmlns:serif="http://www.serif.com/" style="fill-rule:evenodd;clip-rule:evenodd;stroke-linecap:round;stroke-linejoin:round;stroke-miterlimit:1.5;">
    <g transform="matrix(1.1564,0,0,1.1564,-77.5598,-38.0403)">
        <path d="M735.714,209.656C735.714,174.469 721.736,140.724 696.856,115.843C671.975,90.962 638.229,76.984 603.043,76.984L226.323,76.984C191.136,76.984 157.39,90.962 132.509,115.843C107.629,140.724 93.651,174.469 93.651,209.656L93.651,209.656C93.651,244.843 107.629,278.589 132.509,303.469C157.39,328.35 191.136,342.328 226.323,342.328L603.043,342.328C638.229,342.328 671.975,328.35 696.856,303.469C721.736,278.589 735.714,244.843 735.714,209.656L735.714,209.656Z" style="fill:none;stroke:white;stroke-width:21.75px;"/>
        <g transform="matrix(1,0,0,1,-66.6667,118.783)">
            <path d="M409.14,12.217L409.14,157.672L379.31,157.672L321.427,73.723L320.503,73.723L320.503,157.672L285.347,157.672L285.347,12.217L315.603,12.217L372.847,96.024L374.055,96.024L374.055,12.217L409.14,12.217Z" style="fill:white;fill-rule:nonzero;"/>
            <path d="M472.151,159.732C460.74,159.732 450.903,157.471 442.641,152.949C434.379,148.427 428.034,141.964 423.607,133.56C419.18,125.155 416.966,115.153 416.966,103.553C416.966,92.284 419.192,82.423 423.643,73.972C428.093,65.52 434.367,58.939 442.464,54.227C450.56,49.516 460.101,47.161 471.086,47.161C478.851,47.161 485.953,48.368 492.393,50.783C498.832,53.198 504.395,56.772 509.083,61.507C513.77,66.242 517.416,72.078 520.02,79.014C522.625,85.951 523.927,93.894 523.927,102.842L523.927,111.507L429.111,111.507L429.111,91.337L491.611,91.337C491.564,87.644 490.688,84.353 488.984,81.465C487.279,78.576 484.947,76.315 481.988,74.682C479.028,73.048 475.631,72.232 471.796,72.232C467.913,72.232 464.433,73.096 461.356,74.824C458.278,76.552 455.84,78.896 454.04,81.855C452.241,84.814 451.294,88.164 451.199,91.905L451.199,112.43C451.199,116.881 452.075,120.776 453.827,124.114C455.579,127.452 458.065,130.044 461.285,131.891C464.504,133.737 468.34,134.661 472.79,134.661C475.868,134.661 478.662,134.234 481.171,133.382C483.68,132.53 485.835,131.275 487.634,129.618C489.433,127.961 490.783,125.925 491.682,123.51L523.572,124.433C522.246,131.583 519.346,137.797 514.871,143.077C510.397,148.356 504.537,152.452 497.293,155.364C490.049,158.276 481.668,159.732 472.151,159.732Z" style="fill:white;fill-rule:nonzero;"/>
            <path d="M551.001,157.672L522.591,48.581L557.464,48.581L572.165,118.467L573.089,118.467L588.856,48.581L622.876,48.581L639.069,117.97L639.992,117.97L654.268,48.581L689.14,48.581L660.66,157.672L623.515,157.672L606.469,94.107L605.262,94.107L588.216,157.672L551.001,157.672Z" style="fill:white;fill-rule:nonzero;"/>
        </g>
    </g>
</svg>
