<?xml version="1.0" encoding="UTF-8" standalone="no"?>
<!DOCTYPE svg PUBLIC "-//W3C//DTD SVG 1.1//EN" "http://www.w3.org/Graphics/SVG/1.1/DTD/svg11.dtd">
<svg width="100%" height="100%" viewBox="0 0 800 600" version="1.1" xmlns="http://www.w3.org/2000/svg" xmlns:xlink="http://www.w3.org/1999/xlink" xml:space="preserve" xmlns:serif="http://www.serif.com/" style="fill-rule:evenodd;clip-rule:evenodd;stroke-linejoin:round;stroke-miterlimit:2;">
    <g id="Livello1" transform="matrix(0.632591,-0.0123042,0.0129995,0.668336,150.363,79.3052)">
        <path d="M64.405,321.842C63.75,322.845 63.064,323.838 62.383,324.838C59.184,329.529 55.98,334.261 53.841,339.423C41.377,369.505 38.086,413.762 57.048,442.248C65.522,454.979 79.538,464.638 92.367,472.604C122.355,491.226 154.221,502.098 188.554,509.609C222.841,517.11 258.276,524.084 293.29,526.987C315.336,528.814 337.582,528.511 359.538,531.364C406.302,537.443 452.013,548.382 497.786,559.392C518.428,564.357 539.21,568.202 559.977,572.539C594.774,579.804 629.963,586.72 662.231,565.532C682.379,552.302 685.93,541.72 686.393,528.489C686.626,521.857 685.592,514.202 685.998,504.159C686.4,494.21 688.79,484.117 690.935,474.418C697.784,443.453 701.426,411.019 713.476,381.492C720.372,364.595 731.639,349.703 739.54,333.257C753.269,304.681 761.554,274.257 763.822,242.641C766.188,209.648 762.154,174.981 754.768,142.813C750.551,124.446 743.817,106.088 728.546,93.965C707.33,77.123 684.637,74.939 661.353,77.342C641.872,79.353 622.005,84.967 602.654,84.842C503.878,84.206 404.719,80.9 306.123,74.914C258.028,71.994 210.561,63.231 162.646,58.591C135.673,55.979 101.803,55.153 78.756,72.15C55.186,89.532 55.84,119.212 61.047,144.901C66.493,171.771 76.919,198.2 77.53,225.857C78.249,258.375 69.014,289.875 64.405,321.842ZM84.776,335.561C82.034,339.629 79.232,343.7 77.383,348.162C67.528,371.946 63.451,406.967 78.443,429.488C85.014,439.36 96.291,446.414 106.238,452.591C133.659,469.619 162.856,479.42 194.248,486.288C227.397,493.54 261.645,500.337 295.496,503.143C317.954,505.004 340.613,504.744 362.978,507.651C410.682,513.852 457.322,524.962 504.015,536.194C524.396,541.096 544.919,544.883 565.425,549.165C593.414,555.009 621.861,562.909 647.817,545.865C654.162,541.698 657.891,538.377 659.692,534.679C661.396,531.18 661.235,527.551 661.098,523.253C660.917,517.586 660.41,511.117 660.728,503.244C661.185,491.967 663.752,480.507 666.183,469.514C673.31,437.29 677.347,403.594 689.887,372.868C696.959,355.537 708.417,340.217 716.521,323.349C728.994,297.385 736.531,269.745 738.592,241.02C740.8,210.24 736.947,177.906 730.057,147.896C727.027,134.701 723.266,121.014 712.295,112.304C697.136,100.27 680.732,99.42 664.095,101.137C643.657,103.246 622.783,108.908 602.482,108.777C503.224,108.138 403.581,104.815 304.505,98.8C256.091,95.861 208.305,87.073 160.072,82.402C139.027,80.364 112.281,77.769 94.299,91.03C87.336,96.166 84.504,103.302 83.548,110.929C82.346,120.512 83.95,130.857 85.882,140.392C91.593,168.571 102.172,196.351 102.813,225.356C103.163,241.228 101.282,256.872 98.695,272.439C98.698,272.653 98.694,272.87 98.684,273.088C97.932,289.433 97.322,306.92 91.962,322.537C91.167,324.854 90.075,327.065 88.824,329.223C88.204,331.758 86.75,333.949 84.776,335.561Z" style="fill:rgb(255,227,0);"/>
        <path d="M346.122,427.876C344.035,422.847 341.943,417.821 341.444,416.68C331.948,394.946 321.945,378.731 298.369,370.959C279.707,364.806 259.788,366.363 240.63,367.317C219.118,368.388 198.459,368.787 184.823,343.677C181.344,337.27 179.048,330.343 177.45,323.246C175.995,316.786 169.273,312.659 162.448,314.036C155.623,315.413 151.262,321.775 152.717,328.236C154.783,337.41 157.835,346.337 162.332,354.619C179.109,385.514 202.478,391.455 228.224,391.594C248.234,391.702 270.013,386.957 290.051,393.562C306.126,398.862 311.601,411.008 318.076,425.828C319.243,428.5 326.285,446.552 328.542,450.57C330.67,454.36 333.409,455.823 334.427,456.322C336.488,457.333 340.093,458.533 344.933,456.967C347.83,456.031 357.754,449.108 361.863,446.714C372.781,440.355 385.528,438.086 398.042,437.765C415.631,437.313 432.65,441.15 449.684,445.263C468.592,449.829 487.512,454.761 507.015,456.042C540.409,458.236 566.438,452.462 581.848,419.7C584.687,413.666 581.815,406.586 575.44,403.9C569.065,401.213 561.585,403.931 558.746,409.965C548.631,431.47 530.686,433.604 508.766,432.164C490.783,430.983 473.37,426.281 455.936,422.071C436.627,417.408 417.293,413.325 397.355,413.838C380.455,414.272 363.354,417.741 348.61,426.329C348.006,426.681 347.132,427.226 346.122,427.876Z" style="fill:rgb(255,227,0);"/>
        <g transform="matrix(1,0,0,1,-0.770218,35.43)">
            <path d="M250.113,196.534C256.948,191.691 264.991,188.077 273.129,184.585C284.807,179.574 296.717,174.87 306.803,168.613C312.639,164.992 314.272,157.567 310.447,152.043C306.621,146.519 298.777,144.973 292.941,148.594C283.899,154.203 273.155,158.293 262.687,162.786C250.388,168.064 238.458,173.873 228.961,182.04C225.92,184.655 223.549,188.946 223.81,194.876C224.164,202.918 231.569,217.823 234.05,221.424C249.491,243.837 273.8,257.819 296.249,272.002C302.053,275.669 309.911,274.186 313.785,268.692C317.659,263.199 316.092,255.761 310.288,252.094C290.609,239.661 268.768,227.997 255.233,208.35C254.266,206.947 251.596,200.315 250.113,196.534Z" style="fill:rgb(255,227,0);"/>
            <path d="M451.601,242.627C454.677,238.809 458.759,233.801 459.51,233.132C477.28,217.306 502.306,209.879 524.763,203.562C531.452,201.681 535.269,195.013 533.281,188.681C531.293,182.35 524.248,178.737 517.559,180.619C491.485,187.953 462.813,197.326 442.181,215.7C440.378,217.306 429.015,229.738 425.563,236.096C421.825,242.983 423.869,248.617 425.63,251.092C430.472,257.897 440.712,263.704 447.1,269.235C463.587,283.51 480.334,297.344 497.344,310.993C502.667,315.264 510.652,314.641 515.165,309.603C519.677,304.565 519.019,297.006 513.696,292.735C496.93,279.281 480.42,265.645 464.168,251.574C460.746,248.611 455.701,245.802 451.601,242.627Z" style="fill:rgb(255,227,0);"/>
        </g>
        <g transform="matrix(1,0,0,1,-6.16175,23.8768)">
            <path d="M236.062,139.336C253.8,131.207 275.014,124.35 295.595,123.675C314.203,123.066 332.32,127.659 345.933,142.221C350.558,147.168 358.555,147.63 363.781,143.253C369.007,138.875 369.496,131.306 364.871,126.359C328.259,87.198 268.172,98.026 225.042,117.793C218.761,120.672 216.131,127.836 219.172,133.78C222.213,139.725 229.781,142.215 236.062,139.336Z" style="fill:rgb(255,227,0);"/>
            <path d="M455.535,167.266C494.201,138.692 552.389,128.753 582.93,173.611C586.71,179.164 594.541,180.766 600.407,177.189C606.273,173.611 607.966,166.198 604.186,160.646C564.752,102.724 489.9,111.504 439.972,148.4C434.472,152.465 433.493,159.992 437.787,165.198C442.082,170.404 450.034,171.331 455.535,167.266Z" style="fill:rgb(255,227,0);"/>
        </g>
        <g transform="matrix(1,0,0,1,7.70218,36.2003)">
            <path d="M359.99,208.907C357.843,217.22 357.546,225.472 357.491,234.012C357.449,240.618 363.08,246.013 370.058,246.053C377.036,246.093 382.736,240.763 382.779,234.158C382.821,227.507 382.882,221.065 384.555,214.59C386.212,208.174 382.053,201.691 375.274,200.123C368.496,198.555 361.647,202.49 359.99,208.907Z" style="fill:rgb(255,227,0);"/>
            <path d="M351.951,325.725C366.309,312.116 375.659,295.736 377.292,275.739C377.83,269.154 372.618,263.394 365.661,262.885C358.703,262.376 352.618,267.309 352.08,273.894C350.935,287.911 344.121,299.273 334.057,308.812C329.126,313.486 329.131,321.069 334.069,325.737C339.007,330.404 347.02,330.399 351.951,325.725Z" style="fill:rgb(255,227,0);"/>
        </g>
    </g>
    <g transform="matrix(1,0,0,1,-8.4724,-13.8639)">
        <g transform="matrix(1,0,0,1,7.70218,3.08087)">
            <path d="M52.415,244.2C87.309,252.058 123.45,254.457 158.816,259.65C163.184,260.291 167.252,257.265 167.893,252.897C168.534,248.528 165.509,244.461 161.14,243.819C126.172,238.685 90.431,236.36 55.93,228.591C51.622,227.621 47.337,230.33 46.367,234.638C45.397,238.945 48.107,243.23 52.415,244.2Z" style="fill:rgb(255,227,0);"/>
            <path d="M108.087,289.068L148.139,289.068C152.554,289.068 156.139,285.483 156.139,281.068C156.139,276.653 152.554,273.068 148.139,273.068L108.087,273.068C103.672,273.068 100.087,276.653 100.087,281.068C100.087,285.483 103.672,289.068 108.087,289.068Z" style="fill:rgb(255,227,0);"/>
        </g>
        <g transform="matrix(1,0,0,1,6.93196,-69.3196)">
            <path d="M52.415,244.2C87.309,252.058 123.45,254.457 158.816,259.65C163.184,260.291 167.252,257.265 167.893,252.897C168.534,248.528 165.509,244.461 161.14,243.819C126.172,238.685 90.431,236.36 55.93,228.591C51.622,227.621 47.337,230.33 46.367,234.638C45.397,238.945 48.107,243.23 52.415,244.2Z" style="fill:rgb(255,227,0);"/>
            <path d="M108.087,289.068L148.139,289.068C152.554,289.068 156.139,285.483 156.139,281.068C156.139,276.653 152.554,273.068 148.139,273.068L108.087,273.068C103.672,273.068 100.087,276.653 100.087,281.068C100.087,285.483 103.672,289.068 108.087,289.068Z" style="fill:rgb(255,227,0);"/>
        </g>
        <g transform="matrix(0.972934,0.231081,-0.231081,0.972934,91.9544,-157.92)">
            <path d="M52.415,244.2C87.309,252.058 123.45,254.457 158.816,259.65C163.184,260.291 167.252,257.265 167.893,252.897C168.534,248.528 165.509,244.461 161.14,243.819C126.172,238.685 90.431,236.36 55.93,228.591C51.622,227.621 47.337,230.33 46.367,234.638C45.397,238.945 48.107,243.23 52.415,244.2Z" style="fill:rgb(255,227,0);"/>
            <path d="M108.087,289.068L148.139,289.068C152.554,289.068 156.139,285.483 156.139,281.068C156.139,276.653 152.554,273.068 148.139,273.068L108.087,273.068C103.672,273.068 100.087,276.653 100.087,281.068C100.087,285.483 103.672,289.068 108.087,289.068Z" style="fill:rgb(255,227,0);"/>
        </g>
        <g transform="matrix(0.52674,0.530914,-0.709892,0.704311,332.315,-161.889)">
            <path d="M51.088,244.056C86.125,251.946 122.407,254.371 157.917,259.585C163.71,260.435 169.337,257.608 170.474,253.276C171.612,248.943 167.832,244.735 162.039,243.884C127.216,238.771 91.615,236.472 57.256,228.735C51.603,227.462 45.632,229.861 43.929,234.089C42.227,238.317 45.435,242.783 51.088,244.056Z" style="fill:rgb(255,227,0);"/>
            <path d="M108.087,289.068L148.139,289.068C154.042,289.068 158.836,285.483 158.836,281.068C158.836,276.653 154.042,273.068 148.139,273.068L108.087,273.068C102.184,273.068 97.39,276.653 97.39,281.068C97.39,285.483 102.184,289.068 108.087,289.068Z" style="fill:rgb(255,227,0);"/>
        </g>
        <g transform="matrix(0.0800818,0.74358,-0.994251,0.107078,533.046,-37.8396)">
            <path d="M51.088,244.056C86.125,251.946 122.407,254.371 157.917,259.585C163.71,260.435 169.337,257.608 170.474,253.276C171.612,248.943 167.832,244.735 162.039,243.884C127.216,238.771 91.615,236.472 57.256,228.735C51.603,227.462 45.632,229.861 43.929,234.089C42.227,238.317 45.435,242.783 51.088,244.056Z" style="fill:rgb(255,227,0);"/>
            <path d="M108.087,289.068L148.139,289.068C154.042,289.068 158.836,285.483 158.836,281.068C158.836,276.653 154.042,273.068 148.139,273.068L108.087,273.068C102.184,273.068 97.39,276.653 97.39,281.068C97.39,285.483 102.184,289.068 108.087,289.068Z" style="fill:rgb(255,227,0);"/>
        </g>
        <g transform="matrix(0.0800818,0.74358,-0.994251,0.107078,595.434,-28.5969)">
            <path d="M51.088,244.056C86.125,251.946 122.407,254.371 157.917,259.585C163.71,260.435 169.337,257.608 170.474,253.276C171.612,248.943 167.832,244.735 162.039,243.884C127.216,238.771 91.615,236.472 57.256,228.735C51.603,227.462 45.632,229.861 43.929,234.089C42.227,238.317 45.435,242.783 51.088,244.056Z" style="fill:rgb(255,227,0);"/>
            <path d="M108.087,289.068L148.139,289.068C154.042,289.068 158.836,285.483 158.836,281.068C158.836,276.653 154.042,273.068 148.139,273.068L108.087,273.068C102.184,273.068 97.39,276.653 97.39,281.068C97.39,285.483 102.184,289.068 108.087,289.068Z" style="fill:rgb(255,227,0);"/>
        </g>
        <g transform="matrix(0.0800818,0.74358,-0.994251,0.107078,656.281,-23.2054)">
            <path d="M51.088,244.056C86.125,251.946 122.407,254.371 157.917,259.585C163.71,260.435 169.337,257.608 170.474,253.276C171.612,248.943 167.832,244.735 162.039,243.884C127.216,238.771 91.615,236.472 57.256,228.735C51.603,227.462 45.632,229.861 43.929,234.089C42.227,238.317 45.435,242.783 51.088,244.056Z" style="fill:rgb(255,227,0);"/>
            <path d="M108.087,289.068L148.139,289.068C154.042,289.068 158.836,285.483 158.836,281.068C158.836,276.653 154.042,273.068 148.139,273.068L108.087,273.068C102.184,273.068 97.39,276.653 97.39,281.068C97.39,285.483 102.184,289.068 108.087,289.068Z" style="fill:rgb(255,227,0);"/>
        </g>
        <g transform="matrix(0.0800818,0.74358,-0.994251,0.107078,720.209,-26.2863)">
            <path d="M51.088,244.056C86.125,251.946 122.407,254.371 157.917,259.585C163.71,260.435 169.337,257.608 170.474,253.276C171.612,248.943 167.832,244.735 162.039,243.884C127.216,238.771 91.615,236.472 57.256,228.735C51.603,227.462 45.632,229.861 43.929,234.089C42.227,238.317 45.435,242.783 51.088,244.056Z" style="fill:rgb(255,227,0);"/>
            <path d="M108.087,289.068L148.139,289.068C154.042,289.068 158.836,285.483 158.836,281.068C158.836,276.653 154.042,273.068 148.139,273.068L108.087,273.068C102.184,273.068 97.39,276.653 97.39,281.068C97.39,285.483 102.184,289.068 108.087,289.068Z" style="fill:rgb(255,227,0);"/>
        </g>
        <g transform="matrix(0.0800818,0.74358,-0.994251,0.107078,784.907,-26.2863)">
            <path d="M51.088,244.056C86.125,251.946 122.407,254.371 157.917,259.585C163.71,260.435 169.337,257.608 170.474,253.276C171.612,248.943 167.832,244.735 162.039,243.884C127.216,238.771 91.615,236.472 57.256,228.735C51.603,227.462 45.632,229.861 43.929,234.089C42.227,238.317 45.435,242.783 51.088,244.056Z" style="fill:rgb(255,227,0);"/>
            <path d="M108.087,289.068L148.139,289.068C154.042,289.068 158.836,285.483 158.836,281.068C158.836,276.653 154.042,273.068 148.139,273.068L108.087,273.068C102.184,273.068 97.39,276.653 97.39,281.068C97.39,285.483 102.184,289.068 108.087,289.068Z" style="fill:rgb(255,227,0);"/>
        </g>
        <g transform="matrix(0.0800818,0.74358,-0.994251,0.107078,856.538,-30.9076)">
            <path d="M51.088,244.056C86.125,251.946 122.407,254.371 157.917,259.585C163.71,260.435 169.337,257.608 170.474,253.276C171.612,248.943 167.832,244.735 162.039,243.884C127.216,238.771 91.615,236.472 57.256,228.735C51.603,227.462 45.632,229.861 43.929,234.089C42.227,238.317 45.435,242.783 51.088,244.056Z" style="fill:rgb(255,227,0);"/>
            <path d="M108.087,289.068L148.139,289.068C154.042,289.068 158.836,285.483 158.836,281.068C158.836,276.653 154.042,273.068 148.139,273.068L108.087,273.068C102.184,273.068 97.39,276.653 97.39,281.068C97.39,285.483 102.184,289.068 108.087,289.068Z" style="fill:rgb(255,227,0);"/>
        </g>
        <g transform="matrix(-0.304302,0.683173,-0.913479,-0.406886,947.657,150.131)">
            <path d="M51.088,244.056C86.125,251.946 122.407,254.371 157.917,259.585C163.71,260.435 169.337,257.608 170.474,253.276C171.612,248.943 167.832,244.735 162.039,243.884C127.216,238.771 91.615,236.472 57.256,228.735C51.603,227.462 45.632,229.861 43.929,234.089C42.227,238.317 45.435,242.783 51.088,244.056Z" style="fill:rgb(255,227,0);"/>
            <path d="M108.087,289.068L148.139,289.068C154.042,289.068 158.836,285.483 158.836,281.068C158.836,276.653 154.042,273.068 148.139,273.068L108.087,273.068C102.184,273.068 97.39,276.653 97.39,281.068C97.39,285.483 102.184,289.068 108.087,289.068Z" style="fill:rgb(255,227,0);"/>
        </g>
        <g transform="matrix(-0.658455,0.354629,-0.474178,-0.880429,899.645,389.474)">
            <path d="M51.088,244.056C86.125,251.946 122.407,254.371 157.917,259.585C163.71,260.435 169.337,257.608 170.474,253.276C171.612,248.943 167.832,244.735 162.039,243.884C127.216,238.771 91.615,236.472 57.256,228.735C51.603,227.462 45.632,229.861 43.929,234.089C42.227,238.317 45.435,242.783 51.088,244.056Z" style="fill:rgb(255,227,0);"/>
            <path d="M108.087,289.068L148.139,289.068C154.042,289.068 158.836,285.483 158.836,281.068C158.836,276.653 154.042,273.068 148.139,273.068L108.087,273.068C102.184,273.068 97.39,276.653 97.39,281.068C97.39,285.483 102.184,289.068 108.087,289.068Z" style="fill:rgb(255,227,0);"/>
        </g>
        <g transform="matrix(-0.925643,0.121857,-0.13052,-0.991446,844.46,515.009)">
            <path d="M52.163,244.172C87.085,252.036 123.253,254.441 158.647,259.637C163.318,260.323 167.708,257.339 168.443,252.977C169.177,248.616 165.981,244.518 161.309,243.832C126.369,238.701 90.656,236.382 56.181,228.618C51.584,227.583 46.951,230.227 45.842,234.52C44.733,238.812 47.566,243.137 52.163,244.172Z" style="fill:rgb(255,227,0);"/>
            <path d="M108.087,289.068L148.139,289.068C152.868,289.068 156.707,285.483 156.707,281.068C156.707,276.653 152.868,273.068 148.139,273.068L108.087,273.068C103.358,273.068 99.519,276.653 99.519,281.068C99.519,285.483 103.358,289.068 108.087,289.068Z" style="fill:rgb(255,227,0);"/>
        </g>
        <g transform="matrix(-0.925643,0.121857,-0.13052,-0.991446,823.664,577.397)">
            <path d="M52.163,244.172C87.085,252.036 123.253,254.441 158.647,259.637C163.318,260.323 167.708,257.339 168.443,252.977C169.177,248.616 165.981,244.518 161.309,243.832C126.369,238.701 90.656,236.382 56.181,228.618C51.584,227.583 46.951,230.227 45.842,234.52C44.733,238.812 47.566,243.137 52.163,244.172Z" style="fill:rgb(255,227,0);"/>
            <path d="M108.087,289.068L148.139,289.068C152.868,289.068 156.707,285.483 156.707,281.068C156.707,276.653 152.868,273.068 148.139,273.068L108.087,273.068C103.358,273.068 99.519,276.653 99.519,281.068C99.519,285.483 103.358,289.068 108.087,289.068Z" style="fill:rgb(255,227,0);"/>
        </g>
        <g transform="matrix(-0.925643,0.121857,-0.13052,-0.991446,806.719,639.015)">
            <path d="M52.163,244.172C87.085,252.036 123.253,254.441 158.647,259.637C163.318,260.323 167.708,257.339 168.443,252.977C169.177,248.616 165.981,244.518 161.309,243.832C126.369,238.701 90.656,236.382 56.181,228.618C51.584,227.583 46.951,230.227 45.842,234.52C44.733,238.812 47.566,243.137 52.163,244.172Z" style="fill:rgb(255,227,0);"/>
            <path d="M108.087,289.068L148.139,289.068C152.868,289.068 156.707,285.483 156.707,281.068C156.707,276.653 152.868,273.068 148.139,273.068L108.087,273.068C103.358,273.068 99.519,276.653 99.519,281.068C99.519,285.483 103.358,289.068 108.087,289.068Z" style="fill:rgb(255,227,0);"/>
        </g>
        <g transform="matrix(-0.9192,-0.163508,0.175132,-0.984545,717.705,737.104)">
            <path d="M52.163,244.172C87.085,252.036 123.253,254.441 158.647,259.637C163.318,260.323 167.708,257.339 168.443,252.977C169.177,248.616 165.981,244.518 161.309,243.832C126.369,238.701 90.656,236.382 56.181,228.618C51.584,227.583 46.951,230.227 45.842,234.52C44.733,238.812 47.566,243.137 52.163,244.172Z" style="fill:rgb(255,227,0);"/>
            <path d="M108.087,289.068L148.139,289.068C152.868,289.068 156.707,285.483 156.707,281.068C156.707,276.653 152.868,273.068 148.139,273.068L108.087,273.068C103.358,273.068 99.519,276.653 99.519,281.068C99.519,285.483 103.358,289.068 108.087,289.068Z" style="fill:rgb(255,227,0);"/>
        </g>
        <g transform="matrix(-0.725787,-0.587279,0.510223,-0.630556,567.508,747.689)">
            <path d="M52.527,246.075C87.41,253.93 123.54,256.327 158.894,261.518C163.585,262.207 167.879,258.382 168.478,252.983C169.076,247.583 165.753,242.64 161.062,241.951C126.083,236.815 90.331,234.488 55.817,226.716C51.176,225.671 46.671,229.16 45.763,234.502C44.855,239.844 47.886,245.03 52.527,246.075Z" style="fill:rgb(255,227,0);"/>
            <path d="M108.087,290.931L148.139,290.931C152.868,290.931 156.707,286.511 156.707,281.068C156.707,275.625 152.868,271.205 148.139,271.205L108.087,271.205C103.358,271.205 99.519,275.625 99.519,281.068C99.519,286.511 103.358,290.931 108.087,290.931Z" style="fill:rgb(255,227,0);"/>
        </g>
        <g transform="matrix(0.950024,-0.312175,0.312175,0.950024,-79.2696,127.229)">
            <path d="M52.415,244.2C87.309,252.058 123.45,254.457 158.816,259.65C163.184,260.291 167.252,257.265 167.893,252.897C168.534,248.528 165.509,244.461 161.14,243.819C126.172,238.685 90.431,236.36 55.93,228.591C51.622,227.621 47.337,230.33 46.367,234.638C45.397,238.945 48.107,243.23 52.415,244.2Z" style="fill:rgb(255,227,0);"/>
            <path d="M108.087,289.068L148.139,289.068C152.554,289.068 156.139,285.483 156.139,281.068C156.139,276.653 152.554,273.068 148.139,273.068L108.087,273.068C103.672,273.068 100.087,276.653 100.087,281.068C100.087,285.483 103.672,289.068 108.087,289.068Z" style="fill:rgb(255,227,0);"/>
        </g>
        <g transform="matrix(0.803486,-0.595324,0.595324,0.803486,-118.353,275.564)">
            <path d="M52.415,244.2C87.309,252.058 123.45,254.457 158.816,259.65C163.184,260.291 167.252,257.265 167.893,252.897C168.534,248.528 165.509,244.461 161.14,243.819C126.172,238.685 90.431,236.36 55.93,228.591C51.622,227.621 47.337,230.33 46.367,234.638C45.397,238.945 48.107,243.23 52.415,244.2Z" style="fill:rgb(255,227,0);"/>
            <path d="M108.087,289.068L148.139,289.068C152.554,289.068 156.139,285.483 156.139,281.068C156.139,276.653 152.554,273.068 148.139,273.068L108.087,273.068C103.672,273.068 100.087,276.653 100.087,281.068C100.087,285.483 103.672,289.068 108.087,289.068Z" style="fill:rgb(255,227,0);"/>
        </g>
        <g transform="matrix(0.589102,-0.808059,0.808059,0.589102,-98.0646,412.348)">
            <path d="M52.415,244.2C87.309,252.058 123.45,254.457 158.816,259.65C163.184,260.291 167.252,257.265 167.893,252.897C168.534,248.528 165.509,244.461 161.14,243.819C126.172,238.685 90.431,236.36 55.93,228.591C51.622,227.621 47.337,230.33 46.367,234.638C45.397,238.945 48.107,243.23 52.415,244.2Z" style="fill:rgb(255,227,0);"/>
            <path d="M108.087,289.068L148.139,289.068C152.554,289.068 156.139,285.483 156.139,281.068C156.139,276.653 152.554,273.068 148.139,273.068L108.087,273.068C103.672,273.068 100.087,276.653 100.087,281.068C100.087,285.483 103.672,289.068 108.087,289.068Z" style="fill:rgb(255,227,0);"/>
        </g>
        <g transform="matrix(0.28362,-0.958937,0.958937,0.28362,-29.6808,536.809)">
            <path d="M52.415,244.2C87.309,252.058 123.45,254.457 158.816,259.65C163.184,260.291 167.252,257.265 167.893,252.897C168.534,248.528 165.509,244.461 161.14,243.819C126.172,238.685 90.431,236.36 55.93,228.591C51.622,227.621 47.337,230.33 46.367,234.638C45.397,238.945 48.107,243.23 52.415,244.2Z" style="fill:rgb(255,227,0);"/>
            <path d="M108.087,289.068L148.139,289.068C152.554,289.068 156.139,285.483 156.139,281.068C156.139,276.653 152.554,273.068 148.139,273.068L108.087,273.068C103.672,273.068 100.087,276.653 100.087,281.068C100.087,285.483 103.672,289.068 108.087,289.068Z" style="fill:rgb(255,227,0);"/>
        </g>
        <g transform="matrix(-0.0100422,-0.99995,0.99995,-0.0100422,67.4033,631.814)">
            <path d="M52.415,244.2C87.309,252.058 123.45,254.457 158.816,259.65C163.184,260.291 167.252,257.265 167.893,252.897C168.534,248.528 165.509,244.461 161.14,243.819C126.172,238.685 90.431,236.36 55.93,228.591C51.622,227.621 47.337,230.33 46.367,234.638C45.397,238.945 48.107,243.23 52.415,244.2Z" style="fill:rgb(255,227,0);"/>
            <path d="M108.087,289.068L148.139,289.068C152.554,289.068 156.139,285.483 156.139,281.068C156.139,276.653 152.554,273.068 148.139,273.068L108.087,273.068C103.672,273.068 100.087,276.653 100.087,281.068C100.087,285.483 103.672,289.068 108.087,289.068Z" style="fill:rgb(255,227,0);"/>
        </g>
        <g transform="matrix(-0.234567,-0.9721,0.9721,-0.234567,174.131,694.626)">
            <path d="M52.415,244.2C87.309,252.058 123.45,254.457 158.816,259.65C163.184,260.291 167.252,257.265 167.893,252.897C168.534,248.528 165.509,244.461 161.14,243.819C126.172,238.685 90.431,236.36 55.93,228.591C51.622,227.621 47.337,230.33 46.367,234.638C45.397,238.945 48.107,243.23 52.415,244.2Z" style="fill:rgb(255,227,0);"/>
            <path d="M108.087,289.068L148.139,289.068C152.554,289.068 156.139,285.483 156.139,281.068C156.139,276.653 152.554,273.068 148.139,273.068L108.087,273.068C103.672,273.068 100.087,276.653 100.087,281.068C100.087,285.483 103.672,289.068 108.087,289.068Z" style="fill:rgb(255,227,0);"/>
        </g>
        <g transform="matrix(-0.234567,-0.9721,0.9721,-0.234567,245.761,703.098)">
            <g transform="matrix(0.881408,2.77556e-17,-2.77556e-17,1,18.9721,-2.84217e-14)">
                <path d="M51.925,244.146C86.873,252.016 123.067,254.425 158.486,259.626C163.428,260.351 168.108,257.404 168.931,253.049C169.754,248.694 166.411,244.569 161.469,243.843C126.556,238.717 90.868,236.402 56.419,228.644C51.565,227.551 46.618,230.137 45.378,234.415C44.138,238.693 47.072,243.053 51.925,244.146Z" style="fill:rgb(255,227,0);"/>
            </g>
            <path d="M108.087,289.068L148.139,289.068C152.554,289.068 156.139,285.483 156.139,281.068C156.139,276.653 152.554,273.068 148.139,273.068L108.087,273.068C103.672,273.068 100.087,276.653 100.087,281.068C100.087,285.483 103.672,289.068 108.087,289.068Z" style="fill:rgb(255,227,0);"/>
        </g>
        <g transform="matrix(-0.322467,-0.946581,0.946581,-0.322467,335.717,730.04)">
            <g transform="matrix(0.797823,5.55112e-17,-5.55112e-17,1,32.3438,0)">
                <path d="M51.448,244.095C86.447,251.976 122.692,254.394 158.163,259.602C163.606,260.402 168.838,257.525 169.84,253.183C170.841,248.84 167.236,244.666 161.793,243.867C126.931,238.748 91.293,236.442 56.896,228.696C51.57,227.497 46.025,229.973 44.522,234.222C43.018,238.472 46.122,242.895 51.448,244.095Z" style="fill:rgb(255,227,0);"/>
            </g>
            <path d="M108.087,289.068L148.139,289.068C152.554,289.068 156.139,285.483 156.139,281.068C156.139,276.653 152.554,273.068 148.139,273.068L108.087,273.068C103.672,273.068 100.087,276.653 100.087,281.068C100.087,285.483 103.672,289.068 108.087,289.068Z" style="fill:rgb(255,227,0);"/>
        </g>
    </g>
</svg>
