<?xml version="1.0" encoding="UTF-8" standalone="no"?>
<!DOCTYPE svg PUBLIC "-//W3C//DTD SVG 1.1//EN" "http://www.w3.org/Graphics/SVG/1.1/DTD/svg11.dtd">
<svg width="100%" height="100%" viewBox="0 0 800 800" version="1.1" xmlns="http://www.w3.org/2000/svg" xmlns:xlink="http://www.w3.org/1999/xlink" xml:space="preserve" xmlns:serif="http://www.serif.com/" style="fill-rule:evenodd;clip-rule:evenodd;stroke-linejoin:round;stroke-miterlimit:2;">
    <path d="M633.366,297.099C633.366,334.994 633.152,372.024 626.24,409.368C618.754,449.82 617.197,492.44 596.918,529.167C569.609,578.627 518.284,603.351 461.773,617.602C403.487,632.301 339.595,635.772 289.027,642.041C284.919,642.55 281.998,646.299 282.507,650.407C283.016,654.515 286.765,657.436 290.873,656.927C352.35,649.306 433.24,645.598 500.457,621.611C546.69,605.112 586.497,579.074 610.05,536.418C631.114,498.268 633.213,454.117 640.99,412.098C648.07,373.844 648.366,335.917 648.366,297.099C648.366,292.96 645.005,289.599 640.866,289.599C636.727,289.599 633.366,292.96 633.366,297.099Z" style="fill:rgb(255,226,0);"/>
    <path d="M159.332,298.305C160.85,362.282 174.252,421.914 186.419,484.308C196.04,533.649 204.046,583.139 211.594,632.824C212.215,636.916 216.042,639.734 220.135,639.112C224.227,638.491 227.045,634.664 226.423,630.571C218.844,580.68 210.802,530.984 201.141,481.438C189.139,419.882 175.826,361.066 174.328,297.95C174.23,293.811 170.79,290.531 166.652,290.63C162.514,290.728 159.234,294.167 159.332,298.305Z" style="fill:rgb(255,226,0);"/>
    <g id="Naso">
    </g>
    <g id="Livello6">
    </g>
    <g id="Livello5">
        <g transform="matrix(1,0,0,1,-3.08483,45.2442)">
            <path d="M225.46,266.238C228.493,255.529 232.393,244.556 240.444,236.543C257.712,219.355 289.947,219.358 303.07,241.424C309.077,251.522 308.911,264.087 308.796,275.431C308.754,279.57 312.08,282.965 316.219,283.007C320.358,283.049 323.753,279.722 323.795,275.583C323.937,261.585 323.374,246.218 315.962,233.756C297.9,203.386 253.629,202.256 229.862,225.912C219.977,235.751 214.752,249.001 211.028,262.15C209.9,266.133 212.217,270.282 216.2,271.41C220.183,272.538 224.332,270.221 225.46,266.238Z" style="fill:rgb(255,226,0);"/>
        </g>
        <path d="M224.66,245.618C249.17,228.108 283.728,224.285 310.906,236.616C314.675,238.327 319.124,236.655 320.835,232.885C322.545,229.116 320.873,224.667 317.104,222.957C285.228,208.494 244.686,212.876 215.941,233.413C212.573,235.819 211.792,240.507 214.198,243.875C216.604,247.244 221.292,248.024 224.66,245.618Z" style="fill:rgb(255,226,0);"/>
        <path d="M473.481,252.416C505.723,236.563 543.185,231.065 575.798,248.608C579.443,250.569 583.995,249.202 585.956,245.556C587.917,241.911 586.549,237.359 582.904,235.398C545.924,215.506 503.421,220.98 466.863,238.955C463.148,240.781 461.615,245.28 463.441,248.995C465.268,252.709 469.767,254.242 473.481,252.416Z" style="fill:rgb(255,226,0);"/>
        <g transform="matrix(1,0,0,1,-5.14139,56.5553)">
            <path d="M469.41,276.238C470.619,263.928 472.7,250.075 479.878,239.692C485.691,231.284 494.586,225.975 504.008,222.412C544.35,207.154 570.096,250.792 568.323,286.489C568.117,290.623 571.307,294.146 575.441,294.351C579.576,294.557 583.099,291.367 583.304,287.233C585.563,241.76 550.093,188.946 498.702,208.382C486.448,213.016 475.1,220.226 467.54,231.162C458.944,243.596 455.93,260.03 454.482,274.772C454.077,278.892 457.093,282.565 461.213,282.969C465.332,283.374 469.005,280.358 469.41,276.238Z" style="fill:rgb(255,226,0);"/>
        </g>
        <g transform="matrix(1,0,0,1.3457,-4.11311,-59.6585)">
            <path d="M369.178,252.077C363.135,282.8 356.402,313.982 348.787,344.362C347.331,350.172 344.203,358.637 343.532,366.412C342.988,372.718 344.129,378.608 347.816,382.972C355.643,392.236 370.256,395.555 387.03,395.263C408.279,394.894 433.045,388.842 446.278,386.92C450.34,386.33 452.994,383.4 452.2,380.381C451.405,377.362 447.462,375.39 443.4,375.981C430.723,377.822 407.036,383.766 386.679,384.12C375.708,384.31 365.639,383.105 360.52,377.045C358.327,374.449 358.177,370.877 358.501,367.125C359.132,359.815 362.164,351.867 363.533,346.403C371.183,315.882 377.949,284.555 384.02,253.689C384.618,250.646 381.779,247.813 377.683,247.368C373.587,246.924 369.776,249.034 369.178,252.077Z" style="fill:rgb(255,226,0);"/>
        </g>
        <path d="M155.749,216.883C150.264,177.679 145.136,138.389 139.381,99.225C138.779,95.13 134.965,92.293 130.87,92.895C126.774,93.497 123.938,97.311 124.54,101.406C130.291,140.535 135.413,179.792 140.893,218.961C141.467,223.06 145.261,225.923 149.36,225.349C153.46,224.776 156.322,220.982 155.749,216.883Z" style="fill:rgb(255,226,0);"/>
        <path d="M194.896,159.31C194.896,137.744 195.427,116.267 195.997,94.714C196.107,90.576 192.836,87.128 188.699,87.019C184.561,86.909 181.112,90.18 181.003,94.317C180.429,116.003 179.896,137.611 179.896,159.31C179.896,163.449 183.256,166.81 187.396,166.81C191.535,166.81 194.896,163.449 194.896,159.31Z" style="fill:rgb(255,226,0);"/>
        <path d="M256.592,140.801C256.593,124.635 256.893,108.43 256.48,92.269C256.374,88.131 252.929,84.857 248.791,84.963C244.653,85.068 241.379,88.514 241.485,92.652C241.894,108.685 241.593,124.762 241.592,140.801C241.592,144.94 244.953,148.301 249.092,148.301C253.231,148.301 256.592,144.941 256.592,140.801Z" style="fill:rgb(255,226,0);"/>
        <path d="M328.572,139.773C328.572,122.34 329.015,104.961 329.54,87.54C329.665,83.403 326.407,79.942 322.27,79.818C318.132,79.693 314.672,82.951 314.547,87.088C314.017,104.66 313.572,122.189 313.572,139.773C313.572,143.912 316.932,147.273 321.072,147.273C325.211,147.273 328.572,143.912 328.572,139.773Z" style="fill:rgb(255,226,0);"/>
        <path d="M376.797,152.328C382.701,117.232 388.582,82.133 390.439,46.541C390.655,42.408 387.474,38.876 383.34,38.661C379.206,38.445 375.675,41.626 375.459,45.76C373.632,80.778 367.814,115.309 362.005,149.839C361.318,153.921 364.074,157.793 368.156,158.48C372.238,159.167 376.11,156.41 376.797,152.328Z" style="fill:rgb(255,226,0);"/>
        <path d="M429.105,157.072C432.804,142.747 435.968,128.272 439.082,113.81C439.953,109.763 437.375,105.771 433.328,104.899C429.281,104.028 425.289,106.606 424.418,110.653C421.347,124.917 418.23,139.193 414.581,153.322C413.546,157.329 415.96,161.424 419.968,162.459C423.975,163.494 428.07,161.08 429.105,157.072Z" style="fill:rgb(255,226,0);"/>
        <path d="M488.63,161.584C492.798,148.486 496.643,135.281 500.141,121.987C501.195,117.984 498.8,113.879 494.797,112.825C490.794,111.772 486.689,114.167 485.635,118.17C482.201,131.218 478.427,144.18 474.336,157.036C473.081,160.98 475.264,165.202 479.209,166.457C483.153,167.712 487.375,165.529 488.63,161.584Z" style="fill:rgb(255,226,0);"/>
        <path d="M529.494,161.269C542.118,132.191 553.988,103.017 562.896,72.565C564.058,68.592 561.776,64.423 557.803,63.261C553.83,62.098 549.661,64.38 548.499,68.353C539.768,98.203 528.109,126.792 515.735,155.295C514.086,159.092 515.83,163.513 519.627,165.161C523.424,166.81 527.845,165.065 529.494,161.269Z" style="fill:rgb(255,226,0);"/>
        <path d="M577.394,176.503C588.741,157.367 599.498,137.883 611.069,118.884C613.223,115.349 612.101,110.731 608.565,108.577C605.03,106.424 600.412,107.546 598.259,111.081C586.656,130.13 575.869,149.666 564.492,168.852C562.381,172.413 563.557,177.017 567.118,179.129C570.678,181.24 575.283,180.063 577.394,176.503Z" style="fill:rgb(255,226,0);"/>
        <path d="M618.177,190.405C630.95,172.526 643.984,154.741 656.447,136.648C658.795,133.239 657.934,128.565 654.525,126.217C651.116,123.869 646.442,124.73 644.094,128.139C631.68,146.161 618.695,163.876 605.972,181.685C603.565,185.053 604.346,189.742 607.714,192.148C611.082,194.554 615.771,193.773 618.177,190.405Z" style="fill:rgb(255,226,0);"/>
        <path d="M663.552,221.854C674.53,179.343 690.684,137.748 704.512,96.087C705.817,92.158 703.686,87.91 699.757,86.606C695.829,85.302 691.58,87.433 690.276,91.361C676.341,133.343 660.091,175.265 649.028,218.103C647.993,222.111 650.407,226.205 654.415,227.24C658.423,228.275 662.517,225.862 663.552,221.854Z" style="fill:rgb(255,226,0);"/>
        <g transform="matrix(9.90851e-17,-1.61818,1.34043,8.20774e-17,-445.608,825.728)">
            <path d="M215.159,510.981C195.408,510.981 179.914,539.207 169.798,572.024C163.927,591.069 158.604,607.316 158.604,631.803C158.604,657.65 166.859,678.338 173.34,697.994C183.579,729.048 196.044,752.626 215.159,752.626C196.795,719.318 195.142,690.194 195.142,646.211C195.142,624.133 201.758,587.437 203.206,566.986C204.642,546.695 212.976,528.222 215.159,510.981Z" style="fill:rgb(255,227,0);"/>
        </g>
    </g>
</svg>
