<?xml version="1.0" encoding="UTF-8" standalone="no"?>
<!DOCTYPE svg PUBLIC "-//W3C//DTD SVG 1.1//EN" "http://www.w3.org/Graphics/SVG/1.1/DTD/svg11.dtd">
<svg width="100%" height="100%" viewBox="0 0 800 600" version="1.1" xmlns="http://www.w3.org/2000/svg" xmlns:xlink="http://www.w3.org/1999/xlink" xml:space="preserve" xmlns:serif="http://www.serif.com/" style="fill-rule:evenodd;clip-rule:evenodd;stroke-linecap:round;stroke-linejoin:round;stroke-miterlimit:1.5;">
    <g transform="matrix(1.55415,0,0,1.55415,-209.413,-167.766)">
        <path d="M398.748,124.837C398.748,124.837 410.459,222.041 439.647,251.23C468.835,280.418 573.877,299.965 573.877,299.965C573.877,299.965 458.316,322.33 429.128,351.518C399.94,380.706 398.748,475.094 398.748,475.094C398.748,475.094 386.462,379.624 357.274,350.436C328.086,321.248 223.62,299.965 223.62,299.965C223.62,299.965 313.413,281.033 342.601,251.845C371.789,222.657 398.748,124.837 398.748,124.837Z" style="fill:none;stroke:rgb(255,227,0);stroke-width:25.71px;"/>
    </g>
    <g transform="matrix(1.08873,0,0,1.13555,-11.3671,-10.6049)">
        <path d="M117.137,92.362C137.16,106.667 159.025,117.608 179.87,130.544C200.224,143.174 219.191,157.618 238.475,171.776C246.525,177.686 258.065,176.218 264.229,168.5C270.393,160.782 268.862,149.718 260.812,143.808C240.758,129.085 221,114.107 199.833,100.972C179.667,88.458 158.46,77.955 139.089,64.116C130.959,58.308 119.441,59.92 113.383,67.715C107.325,75.51 109.007,86.554 117.137,92.362Z" style="fill:rgb(255,227,0);"/>
    </g>
    <g transform="matrix(1.79055,0,0,2.2554,-112.24,-207.485)">
        <path d="M134.857,172.106C144.008,178.116 153.619,183.491 163.498,188.21C168.78,190.733 175.649,189.377 178.827,185.183C182.006,180.99 180.298,175.537 175.015,173.013C166.076,168.743 157.378,163.88 149.097,158.441C144.347,155.321 137.301,155.85 133.371,159.621C129.441,163.392 130.107,168.986 134.857,172.106Z" style="fill:rgb(255,227,0);"/>
    </g>
    <path d="M244.537,94.855C256.249,103.874 268.592,111.812 281.016,119.788C290.305,125.751 302.688,123.05 308.651,113.761C314.614,104.472 311.913,92.089 302.624,86.126C291.162,78.768 279.748,71.484 268.942,63.163C260.196,56.428 247.628,58.061 240.893,66.807C234.159,75.552 235.791,88.12 244.537,94.855Z" style="fill:rgb(255,227,0);"/>
    <path d="M575.58,196.857C588.768,165.274 610.572,138.847 629.847,111.017C636.132,101.943 633.868,89.473 624.793,83.188C615.719,76.903 603.249,79.168 596.964,88.242C576.1,118.367 552.945,147.256 538.669,181.444C534.416,191.63 539.232,203.352 549.418,207.606C559.604,211.859 571.327,207.043 575.58,196.857Z" style="fill:rgb(255,227,0);"/>
    <path d="M647.122,212.922C651.337,208.475 655.622,204.131 660.052,199.898C668.033,192.272 668.321,179.601 660.695,171.621C653.069,163.64 640.399,163.352 632.418,170.978C627.51,175.668 622.76,180.478 618.09,185.405C610.497,193.416 610.836,206.085 618.847,213.679C626.859,221.272 639.528,220.933 647.122,212.922Z" style="fill:rgb(255,227,0);"/>
    <path d="M529.045,161.805C534.904,153.099 540.914,144.335 547.771,136.365C554.97,127.997 554.022,115.359 545.655,108.16C537.287,100.961 524.649,101.909 517.45,110.276C509.567,119.438 502.594,129.465 495.859,139.473C489.696,148.631 492.128,161.069 501.286,167.232C510.444,173.395 522.882,170.963 529.045,161.805Z" style="fill:rgb(255,227,0);"/>
    <path d="M495.999,428.966C530.951,463.919 574.034,489.128 612.17,520.306C620.716,527.293 633.326,526.027 640.313,517.481C647.3,508.935 646.034,496.324 637.488,489.338C600.381,459.002 558.292,434.69 524.283,400.682C516.478,392.877 503.804,392.877 495.999,400.682C488.194,408.487 488.194,421.161 495.999,428.966Z" style="fill:rgb(255,227,0);"/>
    <path d="M574.929,412.304C585.552,421.396 596.641,429.89 608.338,437.561C617.569,443.614 629.977,441.035 636.03,431.804C642.084,422.574 639.504,410.166 630.274,404.112C619.999,397.374 610.269,389.901 600.938,381.914C592.552,374.737 579.916,375.718 572.739,384.104C565.561,392.491 566.542,405.126 574.929,412.304Z" style="fill:rgb(255,227,0);"/>
    <path d="M471.73,485.905C485.51,495.532 497.039,507.799 509.173,519.34C517.172,526.947 529.842,526.629 537.449,518.63C545.056,510.631 544.738,497.962 536.739,490.355C523.151,477.432 510.068,463.894 494.637,453.114C485.588,446.793 473.11,449.007 466.788,458.056C460.467,467.105 462.681,479.584 471.73,485.905Z" style="fill:rgb(255,227,0);"/>
    <path d="M270.843,390.127C249.347,403.462 226.804,415.821 203.529,425.759C185.006,433.668 165.051,439.947 147.39,449.733C137.735,455.083 134.24,467.265 139.59,476.92C144.94,486.576 157.123,490.071 166.778,484.721C183.254,475.591 201.955,469.925 219.236,462.546C244.364,451.818 268.722,438.514 291.929,424.117C301.31,418.298 304.201,405.959 298.382,396.579C292.563,387.199 280.223,384.308 270.843,390.127Z" style="fill:rgb(255,227,0);"/>
    <path d="M152.886,420.891C173.848,419.138 194.116,415.016 213.535,406.787C223.698,402.48 228.453,390.732 224.146,380.568C219.839,370.405 208.091,365.65 197.927,369.957C182.451,376.516 166.26,379.633 149.553,381.03C138.553,381.949 130.369,391.626 131.289,402.626C132.209,413.626 141.886,421.81 152.886,420.891Z" style="fill:rgb(255,227,0);"/>
    <path d="M270.03,512.414C284.736,502.754 298.899,491.97 310.888,479.004C318.382,470.899 317.887,458.235 309.782,450.741C301.678,443.247 289.014,443.743 281.519,451.847C271.735,462.428 260.071,471.098 248.07,478.981C238.844,485.04 236.274,497.451 242.334,506.677C248.393,515.903 260.804,518.474 270.03,512.414Z" style="fill:rgb(255,227,0);"/>
</svg>
