<?xml version="1.0" encoding="UTF-8" standalone="no"?>
<!DOCTYPE svg PUBLIC "-//W3C//DTD SVG 1.1//EN" "http://www.w3.org/Graphics/SVG/1.1/DTD/svg11.dtd">
<svg width="100%" height="100%" viewBox="0 0 800 200" version="1.1" xmlns="http://www.w3.org/2000/svg" xmlns:xlink="http://www.w3.org/1999/xlink" xml:space="preserve" xmlns:serif="http://www.serif.com/" style="fill-rule:evenodd;clip-rule:evenodd;stroke-linejoin:round;stroke-miterlimit:2;">
    <path d="M43.448,136.369C53.408,127.403 63.293,116.495 74.166,107.126C84.033,98.623 94.707,91.356 107.317,88.787C116.308,86.956 125.363,89.11 134.062,91.423C151.805,96.143 168.571,103.762 185.732,110.146C222.257,123.735 264.056,131.409 303.16,128.933C328.171,127.35 347.219,120.489 366.926,105.12C372.577,100.712 379.692,93.786 387.424,88.595C393.21,84.71 399.251,81.418 405.271,83.244C413.241,85.662 419.217,91.718 424.838,97.634C437.09,110.529 446.676,125.467 456.821,139.992C461.221,146.291 466.339,153.308 472.428,158.87C479.481,165.312 487.802,169.82 497.593,170.209C512.81,170.815 526.403,162.104 536.987,152.118C551.358,138.558 561.614,121.613 571.765,104.851C575.807,98.177 579.751,91.472 584.452,85.783C590.47,78.5 597.796,72.967 608.904,72.41C622.64,71.722 635.175,77.35 647.055,84.609C660.3,92.703 672.725,102.889 684.775,110.478C697.161,118.279 711.421,125.421 726.447,125.44C736.224,125.453 744.946,121.903 753.176,117.045C760.111,112.952 766.677,107.901 773.453,104.114C777.307,101.959 778.687,97.081 776.533,93.227C774.378,89.373 769.5,87.993 765.646,90.147C758.764,93.994 752.087,99.109 745.043,103.267C739.293,106.661 733.298,109.449 726.467,109.44C714.439,109.425 703.216,103.184 693.302,96.94C681.195,89.315 668.705,79.088 655.397,70.956C640.724,61.99 625.071,55.58 608.104,56.43C582.323,57.722 570.088,76.732 558.079,96.563C548.672,112.096 539.325,127.914 526.007,140.48C518.44,147.619 509.108,154.655 498.229,154.222C492.329,153.987 487.469,150.939 483.219,147.057C478.007,142.296 473.705,136.223 469.938,130.83C459.335,115.649 449.243,100.091 436.437,86.614C428.93,78.712 420.56,71.163 409.917,67.934C401.32,65.326 392.412,67.361 383.933,71.996C373.817,77.525 364.289,86.885 357.086,92.503C340.114,105.74 323.691,111.602 302.149,112.965C265.235,115.302 225.791,107.978 191.311,95.151C173.67,88.587 156.415,80.812 138.175,75.961C127.115,73.019 115.556,70.781 104.124,73.109C88.828,76.225 75.691,84.692 63.722,95.005C52.76,104.451 42.785,115.438 32.743,124.477C29.461,127.431 29.195,132.494 32.149,135.776C35.103,139.057 40.166,139.323 43.448,136.369Z" style="fill:rgb(255,227,0);"/>
    <path d="M76.924,149.972C90.55,134.375 116.142,131.306 135.201,137.698C156.751,144.926 176.075,157.336 197.975,163.908C227.134,172.659 257.436,172.455 287.478,170.012C311.306,168.074 336.572,163.18 358.8,154.165C365.427,151.477 372.519,147.122 379.799,143.548C385.579,140.711 391.45,138.258 397.349,138.687C403.227,139.115 408.447,142.071 413.392,145.554C419.489,149.849 425.141,155.039 430.631,159.123C434.174,161.758 439.19,161.021 441.825,157.479C444.46,153.936 443.723,148.92 440.181,146.285C434.587,142.125 428.818,136.849 422.606,132.473C415.241,127.285 407.265,123.366 398.51,122.729C391.474,122.217 384.367,124.052 377.406,127.036C368.847,130.704 360.503,136.208 352.786,139.338C332.034,147.755 308.429,152.255 286.181,154.065C258.123,156.347 229.808,156.756 202.574,148.583C180.839,142.061 161.677,129.702 140.289,122.529C115.555,114.233 82.558,119.204 64.875,139.446C61.97,142.771 62.311,147.829 65.636,150.734C68.961,153.639 74.019,153.297 76.924,149.972Z" style="fill:rgb(255,227,0);"/>
    <path d="M574.592,159.643C582.59,149.257 586.72,135.897 596.346,126.846C605.735,118.018 616.516,117.313 627.234,119.786C639.866,122.701 652.446,129.734 663.471,135.409C667.397,137.43 672.225,135.884 674.246,131.958C676.267,128.032 674.72,123.204 670.795,121.184C658.663,114.938 644.732,107.403 630.831,104.196C615.015,100.546 599.242,102.162 585.386,115.189C575.141,124.822 570.427,138.827 561.915,149.881C559.222,153.379 559.875,158.406 563.373,161.1C566.871,163.794 571.899,163.141 574.592,159.643Z" style="fill:rgb(255,227,0);"/>
    <path d="M437.053,62.618C452.456,72.174 466.666,85.224 476.357,100.586C478.938,104.677 481.707,109.693 485.211,113.483C490.218,118.9 496.498,122.177 504.793,120.745C515.126,118.96 523.33,110.554 529.585,102.862C537.846,92.705 544.758,79.895 557.023,74.121C561.018,72.24 562.734,67.47 560.854,63.475C558.973,59.48 554.203,57.764 550.208,59.645C535.768,66.443 526.897,80.809 517.172,92.767C513.198,97.654 508.634,103.844 502.07,104.978C499.047,105.5 497.295,103.211 495.624,101.019C493.442,98.156 491.644,94.831 489.889,92.049C478.924,74.668 462.915,59.833 445.487,49.022C441.735,46.694 436.799,47.851 434.472,51.603C432.144,55.355 433.301,60.291 437.053,62.618Z" style="fill:rgb(255,227,0);"/>
    <path d="M177.365,65.153C199.05,70.753 220.174,78.01 242.262,82.026C272.845,87.586 305.225,86.348 334.59,75.543C338.733,74.018 340.86,69.416 339.335,65.273C337.81,61.129 333.208,59.003 329.064,60.527C302.371,70.35 272.925,71.338 245.124,66.284C223.42,62.338 202.674,55.164 181.365,49.662C177.09,48.558 172.723,51.132 171.619,55.407C170.515,59.682 173.09,64.049 177.365,65.153Z" style="fill:rgb(255,227,0);"/>
    <path d="M681.892,72.741C691.837,80.399 703.635,88.048 715.476,91.094C729.051,94.585 742.757,92.606 754.714,79.623C757.706,76.375 757.497,71.31 754.25,68.319C751.002,65.328 745.937,65.536 742.946,68.784C734.191,78.289 723.831,77.757 713.988,73.771C706.049,70.556 698.387,65.248 691.653,60.064C688.155,57.37 683.128,58.023 680.434,61.521C677.74,65.019 678.393,70.047 681.892,72.741Z" style="fill:rgb(255,227,0);"/>
</svg>
