<?xml version="1.0" encoding="UTF-8" standalone="no"?>
<!DOCTYPE svg PUBLIC "-//W3C//DTD SVG 1.1//EN" "http://www.w3.org/Graphics/SVG/1.1/DTD/svg11.dtd">
<svg width="100%" height="100%" viewBox="0 0 300 800" version="1.1" xmlns="http://www.w3.org/2000/svg" xmlns:xlink="http://www.w3.org/1999/xlink" xml:space="preserve" xmlns:serif="http://www.serif.com/" style="fill-rule:evenodd;clip-rule:evenodd;stroke-linejoin:round;stroke-miterlimit:2;">
    <g transform="matrix(6.12323e-17,1,-1,6.12323e-17,353.804,-20.5148)">
        <path d="M64.328,208.261C71.492,208.461 78.664,208.629 85.83,208.527C90.245,208.464 93.778,204.829 93.715,200.414C93.653,195.999 90.017,192.466 85.602,192.529C78.66,192.628 71.712,192.46 64.772,192.268C60.359,192.145 56.676,195.629 56.553,200.042C56.431,204.456 59.914,208.139 64.328,208.261Z" style="fill:rgb(255,227,0);"/>
    </g>
    <g transform="matrix(6.12323e-17,1,-1,6.12323e-17,353.804,-20.5148)">
        <path d="M126.063,208.766C135.507,207.976 145.352,207.099 154.461,204.323C158.684,203.035 161.068,198.561 159.78,194.337C158.492,190.114 154.018,187.73 149.795,189.018C141.761,191.467 133.06,192.125 124.73,192.821C120.33,193.189 117.057,197.06 117.425,201.46C117.792,205.86 121.663,209.134 126.063,208.766Z" style="fill:rgb(255,227,0);"/>
    </g>
    <g transform="matrix(6.12323e-17,1,-1,6.12323e-17,353.804,-20.5148)">
        <path d="M200.328,183.685C207.743,177.569 215.396,171.546 222.334,164.89C225.52,161.833 225.625,156.764 222.569,153.578C219.512,150.392 214.443,150.287 211.257,153.344C204.606,159.725 197.255,165.48 190.148,171.342C186.742,174.151 186.257,179.197 189.067,182.604C191.876,186.01 196.922,186.494 200.328,183.685Z" style="fill:rgb(255,227,0);"/>
    </g>
    <g transform="matrix(6.12323e-17,1,-1,6.12323e-17,353.804,-20.5148)">
        <path d="M243.969,136.277C248.734,129.916 253.172,123.122 256.956,116.126C259.057,112.243 257.61,107.384 253.726,105.284C249.842,103.183 244.984,104.631 242.883,108.514C239.47,114.824 235.46,120.948 231.163,126.686C228.516,130.22 229.236,135.238 232.77,137.885C236.304,140.531 241.322,139.811 243.969,136.277Z" style="fill:rgb(255,227,0);"/>
    </g>
    <g transform="matrix(6.12323e-17,1,-1,6.12323e-17,353.804,-20.5148)">
        <path d="M278.82,93.306C290.184,86.256 305.81,79.921 318.532,86.824C322.413,88.93 327.273,87.489 329.379,83.608C331.485,79.727 330.044,74.867 326.163,72.761C308.391,63.118 286.26,69.862 270.386,79.71C266.634,82.037 265.477,86.973 267.805,90.725C270.133,94.477 275.068,95.634 278.82,93.306Z" style="fill:rgb(255,227,0);"/>
    </g>
    <g transform="matrix(6.12323e-17,1,-1,6.12323e-17,353.804,-20.5148)">
        <path d="M343.171,102.824C350.657,108.773 355.859,115.883 360.581,124.14C362.773,127.973 367.665,129.305 371.498,127.113C375.33,124.921 376.662,120.029 374.47,116.197C368.712,106.128 362.253,97.551 353.125,90.298C349.669,87.551 344.632,88.127 341.885,91.584C339.138,95.04 339.714,100.077 343.171,102.824Z" style="fill:rgb(255,227,0);"/>
    </g>
    <g transform="matrix(6.12323e-17,1,-1,6.12323e-17,353.804,-20.5148)">
        <path d="M370.951,149.97C375.664,160.996 380.662,171.699 383.333,183.451C384.311,187.756 388.601,190.457 392.907,189.479C397.212,188.5 399.913,184.21 398.935,179.904C396.048,167.205 390.757,155.598 385.663,143.681C383.928,139.621 379.222,137.734 375.162,139.469C371.103,141.205 369.215,145.91 370.951,149.97Z" style="fill:rgb(255,227,0);"/>
    </g>
    <g transform="matrix(6.12323e-17,1,-1,6.12323e-17,353.804,-20.5148)">
        <path d="M390.462,219.142C392.43,236.761 395.134,254.289 399.413,271.521C400.477,275.806 404.82,278.422 409.105,277.358C413.391,276.294 416.006,271.951 414.942,267.666C410.833,251.118 408.253,234.285 406.363,217.366C405.873,212.978 401.913,209.813 397.525,210.303C393.137,210.793 389.972,214.754 390.462,219.142Z" style="fill:rgb(255,227,0);"/>
    </g>
    <g transform="matrix(6.12323e-17,1,-1,6.12323e-17,353.804,-20.5148)">
        <path d="M413.102,308.791C420.133,316.602 427.523,324.007 436.609,329.414C440.403,331.672 445.317,330.425 447.575,326.631C449.833,322.837 448.586,317.923 444.792,315.665C437.099,311.087 430.946,304.7 424.993,298.087C422.039,294.805 416.977,294.539 413.695,297.493C410.414,300.447 410.148,305.51 413.102,308.791Z" style="fill:rgb(255,227,0);"/>
    </g>
    <g transform="matrix(6.12323e-17,1,-1,6.12323e-17,353.804,-20.5148)">
        <path d="M471.858,338.639C488.45,343.422 505.197,344.447 522.317,342.277C526.698,341.721 529.803,337.714 529.248,333.334C528.692,328.953 524.685,325.848 520.305,326.404C505.372,328.297 490.762,327.437 476.29,323.265C472.048,322.042 467.61,324.494 466.387,328.736C465.164,332.979 467.616,337.416 471.858,338.639Z" style="fill:rgb(255,227,0);"/>
    </g>
    <g transform="matrix(6.12323e-17,1,-1,6.12323e-17,353.804,-20.5148)">
        <path d="M564.234,329.88C569.732,324.669 574.303,318.644 578.344,312.255C580.704,308.524 579.591,303.578 575.859,301.218C572.127,298.858 567.182,299.971 564.822,303.703C561.49,308.971 557.76,313.971 553.227,318.268C550.022,321.305 549.886,326.373 552.924,329.577C555.961,332.782 561.029,332.918 564.234,329.88Z" style="fill:rgb(255,227,0);"/>
    </g>
    <g transform="matrix(6.12323e-17,1,-1,6.12323e-17,353.804,-20.5148)">
        <path d="M595.299,278.237C595.567,267.222 597.836,256.426 598.074,245.407C598.17,240.992 594.663,237.331 590.249,237.236C585.835,237.14 582.173,240.647 582.078,245.061C581.84,256.066 579.571,266.847 579.304,277.848C579.197,282.262 582.693,285.933 587.107,286.04C591.521,286.147 595.192,282.651 595.299,278.237Z" style="fill:rgb(255,227,0);"/>
    </g>
    <g transform="matrix(6.12323e-17,1,-1,6.12323e-17,353.804,-20.5148)">
        <path d="M602.168,210.406C601.55,199.223 598.256,187.809 599.326,176.602C599.745,172.207 596.518,168.298 592.122,167.878C587.727,167.459 583.818,170.687 583.398,175.082C582.253,187.078 585.531,199.317 586.192,211.287C586.435,215.696 590.212,219.078 594.621,218.834C599.029,218.591 602.411,214.814 602.168,210.406Z" style="fill:rgb(255,227,0);"/>
    </g>
    <g transform="matrix(6.12323e-17,1,-1,6.12323e-17,353.804,-20.5148)">
        <path d="M601.455,142.763C603.074,135.575 605.615,127.881 611.193,122.845C614.47,119.886 614.728,114.823 611.769,111.546C608.811,108.269 603.748,108.011 600.47,110.969C592.46,118.201 588.17,128.927 585.846,139.248C584.876,143.555 587.586,147.84 591.893,148.81C596.201,149.78 600.485,147.07 601.455,142.763Z" style="fill:rgb(255,227,0);"/>
    </g>
    <g transform="matrix(6.12323e-17,1,-1,6.12323e-17,353.804,-20.5148)">
        <path d="M629.937,116.727C638.933,116.977 647.817,118.267 654.128,125.238C657.091,128.511 662.154,128.763 665.428,125.8C668.701,122.837 668.953,117.774 665.989,114.5C656.595,104.123 643.774,101.105 630.381,100.733C625.967,100.611 622.284,104.094 622.162,108.508C622.039,112.922 625.523,116.604 629.937,116.727Z" style="fill:rgb(255,227,0);"/>
    </g>
    <g transform="matrix(6.12323e-17,1,-1,6.12323e-17,353.804,-20.5148)">
        <path d="M669.326,152.167C671.527,167.902 670.661,185.298 675.034,200.543C676.252,204.787 680.686,207.244 684.93,206.027C689.174,204.809 691.631,200.375 690.414,196.131C686.241,181.585 687.272,164.963 685.172,149.95C684.56,145.577 680.513,142.524 676.14,143.135C671.767,143.747 668.714,147.794 669.326,152.167Z" style="fill:rgb(255,227,0);"/>
    </g>
    <g transform="matrix(6.12323e-17,1,-1,6.12323e-17,353.804,-20.5148)">
        <path d="M695.722,227.544C706.596,230.595 717.872,232.102 729.119,232.885C733.523,233.192 737.348,229.865 737.655,225.46C737.962,221.055 734.635,217.23 730.23,216.924C720.067,216.216 709.871,214.896 700.045,212.139C695.794,210.946 691.374,213.428 690.181,217.68C688.988,221.931 691.471,226.351 695.722,227.544Z" style="fill:rgb(255,227,0);"/>
    </g>
    <g transform="matrix(6.12323e-17,1,-1,6.12323e-17,353.804,-20.5148)">
        <path d="M763.152,216.348C761.029,218.884 758.938,221.447 756.891,224.043C745.953,237.918 735.164,252.465 726.02,267.58C723.735,271.358 724.947,276.281 728.725,278.566C732.502,280.851 737.425,279.64 739.71,275.862C748.515,261.305 758.923,247.31 769.456,233.949C772.052,230.655 774.724,227.419 777.442,224.224C777.772,223.836 780.348,221 780.793,220.247C782.799,216.856 781.806,214.075 781.311,212.913C780.448,210.887 778.831,208.721 776.635,206.702C773.682,203.987 769.374,201.374 767.093,199.382C756.538,190.169 745.852,181.365 735.662,171.707C732.458,168.67 727.39,168.805 724.352,172.01C721.315,175.214 721.451,180.282 724.655,183.319C735.004,193.129 745.851,202.078 756.571,211.436C758.171,212.833 760.711,214.532 763.152,216.348Z" style="fill:rgb(255,227,0);"/>
    </g>
</svg>
